<?xml version="1.0" encoding="UTF-8"?>
<!DOCTYPE svg PUBLIC "-//W3C//DTD SVG 1.1//EN" "http://www.w3.org/Graphics/SVG/1.1/DTD/svg11.dtd">
<svg xmlns="http://www.w3.org/2000/svg" version="1.1" width="1080px" height="1080px" style="shape-rendering:geometricPrecision; text-rendering:geometricPrecision; image-rendering:optimizeQuality; fill-rule:evenodd; clip-rule:evenodd" xmlns:xlink="http://www.w3.org/1999/xlink">
<g><path style="opacity:0.862" fill="#fefffe" d="M 399.5,344.5 C 492.501,344.333 585.501,344.5 678.5,345C 679.635,349.748 679.802,354.581 679,359.5C 674.263,360.469 669.43,360.803 664.5,360.5C 664.793,364.437 664.46,368.27 663.5,372C 580.498,372.833 497.498,372.667 414.5,371.5C 413.574,367.906 413.241,364.24 413.5,360.5C 408.786,360.827 404.12,360.493 399.5,359.5C 398.222,354.501 398.222,349.501 399.5,344.5 Z"/></g>
<g><path style="opacity:0.713" fill="#fefffe" d="M 434.5,375.5 C 438.5,375.5 442.5,375.5 446.5,375.5C 444.76,413.447 456.26,446.78 481,475.5C 498.238,489.734 514.572,505.068 530,521.5C 529.588,518.705 528.588,516.038 527,513.5C 522.963,508.298 518.463,503.631 513.5,499.5C 512.571,498.311 512.238,496.978 512.5,495.5C 530.17,495.333 547.836,495.5 565.5,496C 566.451,496.718 566.617,497.551 566,498.5C 558.404,505.03 552.237,512.697 547.5,521.5C 547.833,521.833 548.167,522.167 548.5,522.5C 554.296,514.205 560.963,506.705 568.5,500C 577.99,492.176 587.157,484.009 596,475.5C 613.03,457.778 624.03,436.778 629,412.5C 630.165,400.184 630.999,387.851 631.5,375.5C 635.167,375.5 638.833,375.5 642.5,375.5C 646.087,419.255 632.587,456.588 602,487.5C 582.656,502.511 565.656,519.845 551,539.5C 531.679,560.162 511.179,579.328 489.5,597C 475.223,610.615 464.056,626.449 456,644.5C 449.464,663.584 446.464,683.251 447,703.5C 445.806,704.43 444.473,705.097 443,705.5C 440.457,704.884 437.957,704.551 435.5,704.5C 432.229,666.48 442.396,632.48 466,602.5C 486.474,583.361 506.974,564.195 527.5,545C 532.723,539.899 537.723,534.566 542.5,529C 540.421,528.192 538.421,528.359 536.5,529.5C 534.351,533.191 531.351,535.358 527.5,536C 513.769,520.933 499.102,506.933 483.5,494C 455.226,468.286 439.06,436.453 435,398.5C 434.5,390.841 434.334,383.174 434.5,375.5 Z"/></g>
<g><path style="opacity:0.698" fill="#fefffe" d="M 551.5,545.5 C 552.583,545.539 553.583,545.873 554.5,546.5C 559.036,550.871 563.036,555.705 566.5,561C 580.176,573.069 593.676,585.235 607,597.5C 634.028,627.879 646.194,663.545 643.5,704.5C 639.5,704.5 635.5,704.5 631.5,704.5C 631.441,691.121 630.607,677.788 629,664.5C 624.217,643.437 614.884,624.77 601,608.5C 588.641,596.308 575.808,584.641 562.5,573.5C 556.483,567.317 550.649,560.983 545,554.5C 544.685,553.092 545.018,551.759 546,550.5C 548.328,549.336 550.162,547.67 551.5,545.5 Z"/></g>
<g><path style="opacity:0.855" fill="#fefffe" d="M 535.5,556.5 C 538.119,556.232 540.619,556.565 543,557.5C 543.333,574.5 543.667,591.5 544,608.5C 545.049,612.265 546.382,615.932 548,619.5C 565.1,642.934 585.266,663.434 608.5,681C 610.667,683.167 612.833,685.333 615,687.5C 615.667,688.5 615.667,689.5 615,690.5C 564.564,691.763 514.064,691.763 463.5,690.5C 463.238,689.022 463.571,687.689 464.5,686.5C 482.493,671.671 499.66,656.004 516,639.5C 523.655,630.508 529.655,620.508 534,609.5C 534.18,591.76 534.68,574.093 535.5,556.5 Z"/></g>
<g><path style="opacity:0.862" fill="#fefffe" d="M 415.5,706.5 C 498.503,706.167 581.503,706.5 664.5,707.5C 665.426,711.094 665.759,714.76 665.5,718.5C 670.214,718.173 674.88,718.507 679.5,719.5C 680.833,724.167 680.833,728.833 679.5,733.5C 586.502,734.667 493.502,734.833 400.5,734C 399.365,729.252 399.198,724.419 400,719.5C 404.737,718.531 409.57,718.197 414.5,718.5C 414.237,714.4 414.57,710.4 415.5,706.5 Z"/></g>
</svg>
